PathFileType	4	(X/Y/Z)	c:/Users/goper/Files/vsCode/490R/osim_files/C11/C11_SSWS_01.trc
DataRate	CameraRate	NumFrames	NumMarkers	Units                	OrigDataRate	OrigDataStartFrame	OrigNumFrames
120.00	120.00	6	36	mm	120.0	707	1131
                Frame#	Time	LPSI			LASI			LTH1			LTH2			LTH3			LTH4			LLFE			LMFE			LSH1			LSH2			LSH3			LSH4			LLMA			LMMA			LCAL			LMTP			LTOE			LMTP			RPSI			RASI			RTH1			RTH2			RTH3			RTH4			RLFE			RMFE			RSH1			RSH2			RSH3			RSH4			RLMA			RMMA			RCAL			RMTP			RTOE			RMTP		
		X1	Y1	Z1	X2	Y2	Z2	X3	Y3	Z3	X4	Y4	Z4	X5	Y5	Z5	X6	Y6	Z6	X7	Y7	Z7	X8	Y8	Z8	X9	Y9	Z9	X10	Y10	Z10	X11	Y11	Z11	X12	Y12	Z12	X13	Y13	Z13	X14	Y14	Z14	X15	Y15	Z15	X16	Y16	Z16	X17	Y17	Z17	X18	Y18	Z18	X19	Y19	Z19	X20	Y20	Z20	X21	Y21	Z21	X22	Y22	Z22	X23	Y23	Z23	X24	Y24	Z24	X25	Y25	Z25	X26	Y26	Z26	X27	Y27	Z27	X28	Y28	Z28	X29	Y29	Z29	X30	Y30	Z30	X31	Y31	Z31	X32	Y32	Z32	X33	Y33	Z33	X34	Y34	Z34	X35	Y35	Z35	X36	Y36	Z36

707	5.88333	-1762.96680	963.75995	287.02988	-1938.59143	965.01312	364.21872	-1781.73022	588.39807	398.98981	-1780.06421	541.75293	400.03033	-1839.12830	578.93646	416.72318	-1829.16052	533.84790	411.00278	-1780.69702	473.78311	402.76608	-1810.56238	462.74832	294.17651	-1678.52747	423.19214	413.05576	-1650.31165	389.45892	414.12128	-1722.21631	379.75064	420.30533	-1687.40320	351.39990	419.51105	-1485.36560	163.87450	365.42172	-1521.94189	167.70868	273.86133	-1420.09021	169.14243	307.44748	-1542.79712	52.04061	388.56909	-1611.45984	54.65761	320.55600	-1578.97229	50.46538	274.54178	-1767.20447	976.75940	204.61278	-1936.19714	958.93231	132.60181	-1986.48938	612.74780	97.39253	-2007.78833	575.31250	105.44942	-2044.59888	637.99786	110.81756	-2056.81567	596.86859	116.52428	-2059.85889	509.33786	126.51637	-2036.37561	485.04913	235.82396	-2021.19360	388.22028	114.39463	-2035.72083	345.01758	117.51610	-2082.08472	399.88538	120.62192	-2089.52148	353.85638	121.57489	-2106.75317	97.38231	170.08443	-2142.08203	112.07058	265.15814	-2052.69189	61.86114	233.10732	-2269.90576	62.66565	235.60599	-2269.20410	76.26342	185.57375	-2223.39355	46.85395	129.18935
708	5.89167	-1774.37708	963.83899	286.46057	-1950.28455	965.21545	363.05130	-1799.42224	585.63727	398.36633	-1798.46521	539.13025	399.48663	-1856.92688	577.22125	416.11838	-1847.54309	531.97015	410.41766	-1799.87891	472.17749	402.33160	-1830.51978	460.11197	293.80600	-1696.99780	424.73038	412.47305	-1667.75659	392.10977	413.83270	-1739.28455	380.20285	420.66226	-1703.67395	352.85468	419.80502	-1495.80322	171.09431	366.56274	-1533.08936	173.30182	275.25296	-1431.59167	181.07184	308.22571	-1545.43848	55.19495	388.52499	-1613.96460	55.47684	321.04480	-1581.92371	52.58157	274.52570	-1778.28210	977.20251	204.19136	-1947.18079	960.30133	131.62810	-1996.78406	613.87537	96.10891	-2017.76294	576.46515	104.52588	-2055.15430	638.92670	109.29587	-2067.22217	597.74951	115.25262	-2070.66504	510.29144	126.16124	-2045.83057	486.01953	235.16705	-2030.30103	389.81149	112.77443	-2043.71936	346.34586	116.03302	-2092.46313	401.23846	120.46887	-2097.78931	354.05475	121.49464	-2107.99634	97.55314	170.85159	-2142.78906	111.34824	265.86694	-2053.01050	62.05276	233.19119	-2270.53149	60.10506	237.16685	-2270.01147	74.08606	187.32193	-2224.11133	46.89992	129.87331
709	5.90000	-1785.32776	963.87323	285.99707	-1961.74512	965.60022	361.80832	-1817.45325	582.83331	397.63354	-1817.37061	536.42975	398.85144	-1874.94788	575.52808	415.35062	-1866.50049	530.05261	409.80746	-1819.81604	470.44177	401.95615	-1851.15930	457.47272	293.45776	-1716.37122	426.67471	412.31293	-1686.15784	394.80255	413.65759	-1757.34900	380.77780	420.85223	-1720.89197	354.43491	419.93442	-1507.50598	178.53067	367.71152	-1544.95483	179.29413	276.73636	-1444.27942	193.59091	309.29962	-1548.63367	59.49556	388.58203	-1616.79797	56.32560	321.51178	-1585.39075	55.57011	274.62997	-1789.11768	977.76794	203.81989	-1957.97021	961.79974	130.69572	-2006.40637	614.90710	95.07828	-2027.26038	577.40552	103.90670	-2065.25195	639.64703	107.62463	-2076.97461	598.44861	114.03920	-2080.23071	511.06064	126.34054	-2055.32471	487.73471	235.25893	-2039.29480	391.14514	110.91112	-2051.37524	347.68924	114.45643	-2100.57080	400.73520	121.01673	-2105.45557	354.37274	121.55512	-2108.84985	97.75755	171.40759	-2143.54272	110.86420	266.28180	-2053.31616	62.24102	233.28551	-2271.04883	58.26989	237.70107	-2270.87280	72.61292	187.92305	-2224.52563	46.67363	129.94753
710	5.90833	-1795.42200	964.30249	285.29706	-1972.50854	966.01648	360.45743	-1835.54712	580.15320	396.83832	-1835.56360	532.61719	396.54041	-1893.22595	574.09198	414.59183	-1885.59851	528.36340	409.05270	-1840.09058	468.71249	401.62222	-1872.25415	455.13492	292.83560	-1736.64185	428.56613	411.87241	-1705.26135	397.76572	412.66370	-1776.15198	381.60538	420.81448	-1738.47717	356.43796	419.25076	-1519.68115	187.19373	368.04266	-1557.63232	185.72430	278.10172	-1458.23022	206.68524	310.44394	-1552.96692	65.19595	388.76065	-1620.75964	57.94320	322.05072	-1589.53223	59.78930	274.96558	-1799.60583	978.69147	203.30846	-1968.26538	963.42126	129.58667	-2015.52917	615.65924	94.42831	-2036.25598	578.04694	103.56760	-2074.69458	639.96765	106.37879	-2086.02051	598.73828	113.09486	-2089.18286	511.88989	126.38858	-2063.78784	489.84207	235.33531	-2047.36792	392.62231	109.18980	-2058.43164	349.09006	112.83434	-2108.43115	401.21600	120.90574	-2113.01587	354.73993	121.88654	-2109.36890	97.79257	171.71376	-2143.95898	110.64439	266.30258	-2053.41772	62.43363	233.22118	-2271.31616	57.37307	237.52599	-2271.17847	71.55672	187.78830	-2224.60962	46.37703	129.62051
711	5.91667	-1806.38257	964.17456	284.86340	-1983.00916	966.54504	359.29587	-1853.81226	577.64392	395.95413	-1854.83167	530.03583	395.65515	-1911.56506	572.75305	413.83530	-1904.95679	526.98499	408.16458	-1860.78125	467.20688	401.40234	-1893.55591	453.35797	291.95166	-1757.41370	430.48401	411.28564	-1725.24951	400.68719	412.38934	-1795.65784	382.55521	420.51645	-1757.45398	358.28406	419.10861	-1533.32703	196.33723	369.26859	-1571.10730	192.78748	279.19644	-1473.17310	220.31949	311.70154	-1558.61316	72.24118	389.02966	-1624.91724	59.80548	322.29575	-1594.72681	65.00742	275.58078	-1809.90869	979.73468	202.68456	-1978.51221	965.15814	128.47949	-2023.97668	616.61053	93.78268	-2044.48230	578.55664	103.27101	-2083.59644	640.20355	105.32307	-2094.60229	598.95001	112.38852	-2097.22485	512.31561	126.19958	-2072.15552	491.85193	235.33868	-2054.62085	393.82947	107.76944	-2065.06519	350.05341	111.47923	-2115.66602	401.59482	120.74022	-2120.03711	354.90283	121.72172	-2109.65723	97.76722	171.83543	-2144.19360	110.46771	266.38998	-2053.42334	62.46516	233.11665	-2271.54224	56.60173	237.70671	-2271.36206	70.86809	187.96758	-2224.68481	46.28010	129.56131
712	5.92500	-1815.79248	964.70209	283.95923	-1993.03943	967.15308	358.29889	-1871.66724	575.35211	394.89127	-1874.01868	527.78772	394.57224	-1929.71362	571.78741	413.02023	-1924.12842	525.79407	407.40179	-1881.68042	465.90543	401.19345	-1914.63501	452.16583	290.78394	-1778.83582	432.32224	410.68875	-1746.00159	403.40820	412.09393	-1815.88696	383.58185	420.09509	-1777.07654	360.03812	418.83951	-1547.90198	206.17006	370.38742	-1585.31116	200.47078	280.00485	-1489.36438	234.20459	313.01025	-1565.73193	80.70406	389.42804	-1631.77502	62.05556	323.25851	-1600.88477	71.21567	276.48300	-1820.14868	980.64325	202.06033	-1988.63733	966.86389	127.37413	-2031.98645	617.26337	93.29269	-2052.17505	579.08990	102.86063	-2092.40088	640.46698	104.10372	-2102.49805	599.09442	111.59395	-2104.77441	512.49988	125.89726	-2079.00708	492.79099	234.91527	-2061.07812	394.71976	106.81771	-2070.88184	350.77246	110.56367	-2122.69775	401.70700	120.48482	-2125.93457	354.85474	121.35328	-2109.94531	97.76434	172.03568	-2144.46313	110.29965	266.56970	-2053.53418	62.51470	233.06656	-2271.75464	56.01124	237.88794	-2271.63257	70.21379	188.19034	-2224.75195	46.24854	129.54295
